<svg width="14" height="15" viewBox="0 0 14 15" fill="none" xmlns="http://www.w3.org/2000/svg">
<path d="M11.0207 10.5779L13.876 13.4326L12.9327 14.3759L10.078 11.5206C9.01587 12.3721 7.69471 12.8352 6.33337 12.8333C3.02137 12.8333 0.333374 10.1453 0.333374 6.83325C0.333374 3.52125 3.02137 0.833252 6.33337 0.833252C9.64537 0.833252 12.3334 3.52125 12.3334 6.83325C12.3353 8.19459 11.8722 9.51574 11.0207 10.5779ZM9.68337 10.0833C10.5294 9.21318 11.002 8.04687 11 6.83325C11 4.25459 8.91137 2.16659 6.33337 2.16659C3.75471 2.16659 1.66671 4.25459 1.66671 6.83325C1.66671 9.41125 3.75471 11.4999 6.33337 11.4999C7.54699 11.5018 8.7133 11.0293 9.58337 10.1833L9.68337 10.0833V10.0833Z" fill="#82868B"/>
</svg>
